<svg width="17" height="14" viewBox="0 0 17 14" fill="none" xmlns="http://www.w3.org/2000/svg">
<path id="Vector" d="M9.59557 0.104997C9.42852 0.174315 9.27678 0.275908 9.14906 0.403957C9.02101 0.531683 8.91942 0.683416 8.8501 0.850465C8.78078 1.01751 8.7451 1.1966 8.7451 1.37746C8.7451 1.55832 8.78078 1.7374 8.8501 1.90445C8.91942 2.0715 9.02101 2.22323 9.14906 2.35096L12.3033 5.50246H1.87256C1.50789 5.50246 1.15815 5.64732 0.900286 5.90519C0.642423 6.16305 0.497559 6.51278 0.497559 6.87746C0.497559 7.24213 0.642423 7.59187 0.900286 7.84973C1.15815 8.10759 1.50789 8.25246 1.87256 8.25246H12.3033L9.14906 11.404C9.02122 11.5318 8.91981 11.6836 8.85062 11.8506C8.78143 12.0176 8.74582 12.1967 8.74582 12.3775C8.74582 12.5583 8.78143 12.7373 8.85062 12.9043C8.91981 13.0713 9.02122 13.2231 9.14906 13.351C9.2769 13.4788 9.42867 13.5802 9.59571 13.6494C9.76274 13.7186 9.94176 13.7542 10.1226 13.7542C10.3034 13.7542 10.4824 13.7186 10.6494 13.6494C10.8164 13.5802 10.9682 13.4788 11.0961 13.351L16.5961 7.85096C16.7241 7.72323 16.8257 7.5715 16.895 7.40445C16.9643 7.2374 17 7.05832 17 6.87746C17 6.6966 16.9643 6.51751 16.895 6.35046C16.8257 6.18342 16.7241 6.03168 16.5961 5.90396L11.0961 0.403957C10.9683 0.275908 10.8166 0.174315 10.6496 0.104997C10.4825 0.0356795 10.3034 0 10.1226 0C9.9417 0 9.76262 0.0356795 9.59557 0.104997Z" fill="#C9CDD2"/>
</svg>
