<svg width="24" height="25" viewBox="0 0 24 25" fill="none" xmlns="http://www.w3.org/2000/svg">
<g id="lucide:thumbs-up">
<path id="Vector" d="M17 14.7541L17 2.75415M9 18.8741L10 14.7541L4.17 14.7541C3.85951 14.7541 3.55329 14.6819 3.27557 14.543C2.99786 14.4041 2.75629 14.2025 2.57 13.9541C2.38371 13.7058 2.2578 13.4174 2.20226 13.1119C2.14672 12.8064 2.16306 12.4922 2.25 12.1941L4.58 4.19415C4.70117 3.77872 4.95381 3.41379 5.3 3.15415C5.64619 2.8945 6.06726 2.75415 6.5 2.75415L20 2.75415C20.5304 2.75415 21.0391 2.96486 21.4142 3.33994C21.7893 3.71501 22 4.22372 22 4.75415L22 12.7542C22 13.2846 21.7893 13.7933 21.4142 14.1684C21.0391 14.5434 20.5304 14.7542 20 14.7542L17.24 14.7541C16.8679 14.7543 16.5033 14.8583 16.187 15.0544C15.8708 15.2505 15.6156 15.5309 15.45 15.8641L12 22.7541C11.5284 22.7483 11.0643 22.636 10.6422 22.4256C10.2201 22.2151 9.85107 21.912 9.5626 21.5389C9.27412 21.1659 9.07368 20.7324 8.97626 20.2709C8.87884 19.8095 8.88696 19.332 9 18.8741Z" stroke="#F7F8F9" stroke-width="2" stroke-linecap="round" stroke-linejoin="round"/>
</g>
</svg>
