<svg width="54" height="54" viewBox="0 0 54 54" fill="none" xmlns="http://www.w3.org/2000/svg">
<path fill-rule="evenodd" clip-rule="evenodd" d="M53.34 26.67C53.34 41.3998 41.3998 53.34 26.67 53.34C22.4028 53.34 18.3703 52.3372 14.7965 50.5557C13.8525 50.0677 12.7627 49.9416 11.7322 50.2009L5.79542 51.7905C5.2078 51.9473 4.58928 51.9467 4.00194 51.7889C3.41459 51.6311 2.87909 51.3216 2.44918 50.8914C2.01927 50.4612 1.71008 49.9255 1.55264 49.3381C1.3952 48.7507 1.39506 48.1321 1.55223 47.5446L3.13909 41.6079C3.39719 40.5779 3.2701 39.489 2.78171 38.5462C0.945836 34.8568 -0.00649496 30.7909 3.33385e-05 26.67C3.33385e-05 11.9402 11.9402 0 26.67 0C41.3998 0 53.34 11.9402 53.34 26.67ZM14.6685 24.291C14.6685 27.9422 18.1863 31.772 21.4134 34.5163C21.4154 34.518 21.4174 34.5197 21.4194 34.5215C23.6103 36.3849 24.7089 37.3193 26.67 37.3193C28.6329 37.3193 29.7317 36.3859 31.9267 34.5163C35.1537 31.7693 38.6715 27.9422 38.6715 24.291C38.6715 17.1515 32.0707 14.4871 26.67 20.0025C21.2693 14.4871 14.6685 17.1515 14.6685 24.291Z" fill="#397153"/>
</svg>
