<svg width="24" height="25" viewBox="0 0 24 25" fill="none" xmlns="http://www.w3.org/2000/svg">
<g id="lucide:thumbs-up">
<path id="Vector" d="M7 10.7542V22.7542M15 6.63415L14 10.7542H19.83C20.1405 10.7542 20.4467 10.8264 20.7244 10.9653C21.0021 11.1042 21.2437 11.3058 21.43 11.5542C21.6163 11.8025 21.7422 12.0909 21.7977 12.3964C21.8533 12.7019 21.8369 13.0161 21.75 13.3142L19.42 21.3141C19.2988 21.7296 19.0462 22.0945 18.7 22.3542C18.3538 22.6138 17.9327 22.7542 17.5 22.7542H4C3.46957 22.7542 2.96086 22.5434 2.58579 22.1684C2.21071 21.7933 2 21.2846 2 20.7542V12.7542C2 12.2237 2.21071 11.715 2.58579 11.3399C2.96086 10.9649 3.46957 10.7542 4 10.7542H6.76C7.13208 10.754 7.49674 10.65 7.81296 10.4539C8.12917 10.2578 8.38442 9.97736 8.55 9.64415L12 2.75415C12.4716 2.75999 12.9357 2.87232 13.3578 3.08275C13.7799 3.29317 14.1489 3.59626 14.4374 3.96935C14.7259 4.34245 14.9263 4.77591 15.0237 5.23735C15.1212 5.69879 15.113 6.17629 15 6.63415Z" stroke="#F7F8F9" stroke-width="2" stroke-linecap="round" stroke-linejoin="round"/>
</g>
</svg>
