<svg width="92" height="29" viewBox="0 0 92 29" fill="none" xmlns="http://www.w3.org/2000/svg">
<path d="M6.976 2.468C4.56533 2.468 3.36 3.70533 3.36 6.18C3.36 8.56933 4.58667 9.764 7.04 9.764H12.64C14.7093 9.764 16.2453 10.276 17.248 11.3C18.272 12.324 18.7947 13.9347 18.816 16.132C18.8373 18.18 18.3147 19.748 17.248 20.836C16.2027 21.924 14.6133 22.468 12.48 22.468H3.328C2.58133 22.468 2.208 22.1053 2.208 21.38C2.208 20.9747 2.28267 20.644 2.432 20.388C2.60267 20.1107 2.90133 19.972 3.328 19.972H12.448C15.1147 19.972 16.448 18.6493 16.448 16.004C16.448 13.5293 15.2533 12.292 12.864 12.292H7.04C2.98667 12.292 0.96 10.2547 0.96 6.18C0.96 2.12667 2.98667 0.0999985 7.04 0.0999985H16.704C17.088 0.0999985 17.3653 0.217332 17.536 0.452C17.728 0.686666 17.824 0.985332 17.824 1.348C17.824 2.09467 17.4507 2.468 16.704 2.468H6.976ZM23.1725 14.5C23.1725 15.3533 23.3112 16.1427 23.5885 16.868C23.8658 17.572 24.2498 18.1907 24.7405 18.724C25.2312 19.2573 25.8285 19.6733 26.5325 19.972C27.2365 20.2707 28.0152 20.42 28.8685 20.42C29.7218 20.42 30.4898 20.2707 31.1725 19.972C31.8765 19.6733 32.4738 19.2573 32.9645 18.724C33.4765 18.1907 33.8605 17.572 34.1165 16.868C34.3938 16.1427 34.5325 15.3533 34.5325 14.5C34.5325 13.6467 34.3938 12.8573 34.1165 12.132C33.8605 11.4067 33.4765 10.788 32.9645 10.276C32.4738 9.74267 31.8765 9.32667 31.1725 9.028C30.4898 8.72933 29.7218 8.58 28.8685 8.58C28.0152 8.58 27.2365 8.72933 26.5325 9.028C25.8285 9.32667 25.2312 9.74267 24.7405 10.276C24.2498 10.788 23.8658 11.4067 23.5885 12.132C23.3112 12.8573 23.1725 13.6467 23.1725 14.5ZM20.7725 14.5C20.7725 13.2413 20.9645 12.1107 21.3485 11.108C21.7325 10.084 22.2765 9.20933 22.9805 8.484C23.7058 7.73733 24.5592 7.172 25.5405 6.788C26.5432 6.38267 27.6525 6.18 28.8685 6.18C30.0845 6.18 31.1832 6.38267 32.1645 6.788C33.1672 7.172 34.0205 7.73733 34.7245 8.484C35.4285 9.20933 35.9725 10.084 36.3565 11.108C36.7405 12.1107 36.9325 13.2413 36.9325 14.5C36.9325 15.7373 36.7405 16.868 36.3565 17.892C35.9725 18.916 35.4285 19.8013 34.7245 20.548C34.0205 21.2733 33.1672 21.8387 32.1645 22.244C31.1832 22.628 30.0845 22.82 28.8685 22.82C27.6525 22.82 26.5432 22.628 25.5405 22.244C24.5592 21.8387 23.7058 21.2733 22.9805 20.548C22.2765 19.8013 21.7325 18.916 21.3485 17.892C20.9645 16.868 20.7725 15.7373 20.7725 14.5ZM38.8663 14.5C38.8663 13.2413 39.0583 12.1107 39.4423 11.108C39.8262 10.084 40.3703 9.20933 41.0743 8.484C41.7996 7.73733 42.6529 7.172 43.6343 6.788C44.6369 6.38267 45.7463 6.18 46.9623 6.18C48.1783 6.18 49.2769 6.38267 50.2583 6.788C51.2609 7.172 52.1143 7.73733 52.8183 8.484C53.5223 9.20933 54.0663 10.084 54.4503 11.108C54.8343 12.1107 55.0263 13.2413 55.0263 14.5C55.0263 15.7373 54.8343 16.868 54.4503 17.892C54.0663 18.916 53.5223 19.8013 52.8183 20.548C52.1143 21.2733 51.2609 21.8387 50.2583 22.244C49.2769 22.628 48.1783 22.82 46.9623 22.82C45.7889 22.82 44.7223 22.6387 43.7623 22.276C42.8023 21.9133 41.9703 21.3907 41.2663 20.708V27.812C41.2663 28.6013 40.8929 28.996 40.1463 28.996C39.7196 28.996 39.3996 28.9107 39.1863 28.74C38.9729 28.5693 38.8663 28.26 38.8663 27.812V14.5ZM41.2663 14.5C41.2663 15.3533 41.4049 16.1427 41.6823 16.868C41.9596 17.572 42.3436 18.1907 42.8343 18.724C43.3249 19.2573 43.9223 19.6733 44.6263 19.972C45.3303 20.2707 46.1089 20.42 46.9623 20.42C47.8156 20.42 48.5836 20.2707 49.2663 19.972C49.9703 19.6733 50.5676 19.2573 51.0583 18.724C51.5703 18.1907 51.9543 17.572 52.2103 16.868C52.4876 16.1427 52.6263 15.3533 52.6263 14.5C52.6263 13.6467 52.4876 12.8573 52.2103 12.132C51.9543 11.4067 51.5703 10.788 51.0583 10.276C50.5676 9.74267 49.9703 9.32667 49.2663 9.028C48.5836 8.72933 47.8156 8.58 46.9623 8.58C46.1089 8.58 45.3303 8.72933 44.6263 9.028C43.9223 9.32667 43.3249 9.74267 42.8343 10.276C42.3436 10.788 41.9596 11.4067 41.6823 12.132C41.4049 12.8573 41.2663 13.6467 41.2663 14.5ZM56.96 14.5C56.96 13.2413 57.152 12.1107 57.536 11.108C57.92 10.084 58.464 9.20933 59.168 8.484C59.8933 7.73733 60.7467 7.172 61.728 6.788C62.7307 6.38267 63.84 6.18 65.056 6.18C66.272 6.18 67.3707 6.38267 68.352 6.788C69.3547 7.172 70.208 7.73733 70.912 8.484C71.616 9.20933 72.16 10.084 72.544 11.108C72.928 12.1107 73.12 13.2413 73.12 14.5C73.12 15.7373 72.928 16.868 72.544 17.892C72.16 18.916 71.616 19.8013 70.912 20.548C70.208 21.2733 69.3547 21.8387 68.352 22.244C67.3707 22.628 66.272 22.82 65.056 22.82C63.8827 22.82 62.816 22.6387 61.856 22.276C60.896 21.9133 60.064 21.3907 59.36 20.708V27.812C59.36 28.6013 58.9867 28.996 58.24 28.996C57.8133 28.996 57.4933 28.9107 57.28 28.74C57.0667 28.5693 56.96 28.26 56.96 27.812V14.5ZM59.36 14.5C59.36 15.3533 59.4987 16.1427 59.776 16.868C60.0533 17.572 60.4373 18.1907 60.928 18.724C61.4187 19.2573 62.016 19.6733 62.72 19.972C63.424 20.2707 64.2027 20.42 65.056 20.42C65.9093 20.42 66.6773 20.2707 67.36 19.972C68.064 19.6733 68.6613 19.2573 69.152 18.724C69.664 18.1907 70.048 17.572 70.304 16.868C70.5813 16.1427 70.72 15.3533 70.72 14.5C70.72 13.6467 70.5813 12.8573 70.304 12.132C70.048 11.4067 69.664 10.788 69.152 10.276C68.6613 9.74267 68.064 9.32667 67.36 9.028C66.6773 8.72933 65.9093 8.58 65.056 8.58C64.2027 8.58 63.424 8.72933 62.72 9.028C62.016 9.32667 61.4187 9.74267 60.928 10.276C60.4373 10.788 60.0533 11.4067 59.776 12.132C59.4987 12.8573 59.36 13.6467 59.36 14.5ZM77.4538 14.5C77.4538 15.3533 77.5924 16.1427 77.8698 16.868C78.1471 17.572 78.5311 18.1907 79.0218 18.724C79.5124 19.2573 80.1098 19.6733 80.8138 19.972C81.5178 20.2707 82.2964 20.42 83.1498 20.42C84.0031 20.42 84.7711 20.2707 85.4538 19.972C86.1578 19.6733 86.7551 19.2573 87.2458 18.724C87.7578 18.1907 88.1418 17.572 88.3978 16.868C88.6751 16.1427 88.8138 15.3533 88.8138 14.5C88.8138 13.6467 88.6751 12.8573 88.3978 12.132C88.1418 11.4067 87.7578 10.788 87.2458 10.276C86.7551 9.74267 86.1578 9.32667 85.4538 9.028C84.7711 8.72933 84.0031 8.58 83.1498 8.58C82.2964 8.58 81.5178 8.72933 80.8138 9.028C80.1098 9.32667 79.5124 9.74267 79.0218 10.276C78.5311 10.788 78.1471 11.4067 77.8698 12.132C77.5924 12.8573 77.4538 13.6467 77.4538 14.5ZM75.0538 14.5C75.0538 13.2413 75.2458 12.1107 75.6298 11.108C76.0137 10.084 76.5578 9.20933 77.2618 8.484C77.9871 7.73733 78.8404 7.172 79.8218 6.788C80.8244 6.38267 81.9338 6.18 83.1498 6.18C84.3658 6.18 85.4644 6.38267 86.4458 6.788C87.4484 7.172 88.3018 7.73733 89.0058 8.484C89.7098 9.20933 90.2538 10.084 90.6378 11.108C91.0218 12.1107 91.2138 13.2413 91.2138 14.5C91.2138 15.7373 91.0218 16.868 90.6378 17.892C90.2538 18.916 89.7098 19.8013 89.0058 20.548C88.3018 21.2733 87.4484 21.8387 86.4458 22.244C85.4644 22.628 84.3658 22.82 83.1498 22.82C81.9338 22.82 80.8244 22.628 79.8218 22.244C78.8404 21.8387 77.9871 21.2733 77.2618 20.548C76.5578 19.8013 76.0137 18.916 75.6298 17.892C75.2458 16.868 75.0538 15.7373 75.0538 14.5Z" fill="white"/>
</svg>
