<svg width="73" height="16" viewBox="0 0 73 16" fill="none" xmlns="http://www.w3.org/2000/svg">
<path d="M0.36 12.58L1.2 11.34C1.29333 11.1933 1.42 11.1067 1.58 11.08C1.74 11.0533 1.89333 11.0867 2.04 11.18C2.64 11.5533 3.22667 11.8733 3.8 12.14C4.56 12.5133 5.38 12.7 6.26 12.7C6.71333 12.7 7.11333 12.64 7.46 12.52C7.78 12.4267 8.07333 12.28 8.34 12.08C8.58 11.8933 8.76 11.6867 8.88 11.46C9 11.2467 9.06 11.02 9.06 10.78C9.06 10.5 8.96667 10.2467 8.78 10.02C8.60667 9.83333 8.36667 9.66667 8.06 9.52C7.91333 9.45333 7.75333 9.39333 7.58 9.34C7.40667 9.28667 7.21333 9.23333 7 9.18C6.8 9.12667 6.59333 9.08 6.38 9.04C6.18 9 5.96667 8.96 5.74 8.92C5.59333 8.89333 5.43333 8.86667 5.26 8.84C5.08667 8.8 4.90667 8.76 4.72 8.72C4.33333 8.66667 3.93333 8.56667 3.52 8.42C3.09333 8.3 2.68667 8.13333 2.3 7.92C1.9 7.72 1.54 7.46 1.22 7.14C0.9 6.84667 0.64 6.47333 0.44 6.02C0.253333 5.58 0.16 5.07333 0.16 4.5C0.16 3.66 0.333333 2.94667 0.68 2.36C1.01333 1.81333 1.45333 1.36667 2 1.02C2.52 0.713332 3.12 0.486666 3.8 0.339999C4.42667 0.206666 5.06667 0.139999 5.72 0.139999C6.33333 0.139999 6.88 0.179999 7.36 0.259999C7.6 0.299999 7.82667 0.353333 8.04 0.419999C8.26667 0.473333 8.48667 0.533333 8.7 0.599999C8.91333 0.679999 9.12 0.773333 9.32 0.879999C9.52 0.973332 9.71333 1.07333 9.9 1.18C10.0333 1.26 10.16 1.34 10.28 1.42C10.4 1.5 10.5333 1.58 10.68 1.66C10.8267 1.76667 10.9133 1.9 10.94 2.06C10.9667 2.22 10.9267 2.37333 10.82 2.52L9.98 3.72C9.87333 3.86667 9.73333 3.95333 9.56 3.98C9.4 4.00667 9.24667 3.97333 9.1 3.88C8.58 3.54667 8.08667 3.29333 7.62 3.12C6.99333 2.86667 6.32 2.74 5.6 2.74C5.48 2.74 5.34667 2.74667 5.2 2.76C5.06667 2.77333 4.92667 2.79333 4.78 2.82C4.47333 2.88667 4.18 2.98667 3.9 3.12C3.76667 3.18667 3.64 3.26 3.52 3.34C3.41333 3.42 3.31333 3.51333 3.22 3.62C3.04667 3.83333 2.96 4.08667 2.96 4.38C2.96 4.67333 3.06667 4.92 3.28 5.12C3.49333 5.32 3.76667 5.48667 4.1 5.62C4.27333 5.68667 4.44667 5.74667 4.62 5.8C4.80667 5.85333 5 5.90667 5.2 5.96C5.4 6.01333 5.59333 6.06 5.78 6.1C5.98 6.14 6.17333 6.18667 6.36 6.24C6.50667 6.26667 6.66 6.3 6.82 6.34C6.98 6.38 7.15333 6.41333 7.34 6.44C7.52667 6.46667 7.72 6.50667 7.92 6.56C8.12 6.6 8.32 6.65333 8.52 6.72C8.62667 6.74667 8.73333 6.78 8.84 6.82C8.96 6.86 9.07333 6.9 9.18 6.94C9.34 7.00667 9.52 7.09333 9.72 7.2C9.93333 7.30667 10.1133 7.41333 10.26 7.52C10.3667 7.58667 10.46 7.66 10.54 7.74C10.6333 7.80667 10.72 7.88 10.8 7.96C11.1333 8.29333 11.3867 8.68 11.56 9.12C11.76 9.58667 11.86 10.1467 11.86 10.8C11.86 11.5467 11.7267 12.2067 11.46 12.78C11.1933 13.34 10.8133 13.8 10.32 14.16C9.81333 14.5467 9.22667 14.8267 8.56 15C7.85333 15.1867 7.1 15.28 6.3 15.28C5.52667 15.28 4.85333 15.22 4.28 15.1C3.73333 15.0067 3.20667 14.8533 2.7 14.64C2.46 14.5467 2.22667 14.4467 2 14.34C1.77333 14.22 1.55333 14.0933 1.34 13.96C1.20667 13.88 1.07333 13.8 0.94 13.72C0.806667 13.6267 0.666667 13.5267 0.52 13.42C0.373333 13.3267 0.286667 13.2 0.26 13.04C0.233333 12.88 0.266667 12.7267 0.36 12.58ZM21.0338 15.28C19.9938 15.28 19.0138 15.08 18.0938 14.68C17.1738 14.28 16.3671 13.74 15.6738 13.06C14.9938 12.3667 14.4538 11.56 14.0538 10.64C13.6538 9.72 13.4538 8.73333 13.4538 7.68C13.4538 6.64 13.6538 5.66 14.0538 4.74C14.4538 3.80667 14.9938 3 15.6738 2.32C16.3671 1.62667 17.1738 1.08 18.0938 0.68C19.0138 0.279999 19.9938 0.079999 21.0338 0.079999C22.0871 0.079999 23.0738 0.279999 23.9938 0.68C24.9138 1.08 25.7138 1.62667 26.3938 2.32C27.0871 3 27.6338 3.80667 28.0338 4.74C28.4338 5.66 28.6338 6.64 28.6338 7.68C28.6338 8.73333 28.4338 9.72 28.0338 10.64C27.6338 11.56 27.0871 12.3667 26.3938 13.06C25.7138 13.74 24.9138 14.28 23.9938 14.68C23.0738 15.08 22.0871 15.28 21.0338 15.28ZM21.0338 2.7C20.3671 2.7 19.7404 2.84 19.1538 3.12C18.5804 3.38667 18.0738 3.74667 17.6338 4.2C17.2071 4.65333 16.8671 5.18667 16.6138 5.8C16.3604 6.4 16.2338 7.02667 16.2338 7.68C16.2338 8.34667 16.3604 8.98 16.6138 9.58C16.8671 10.18 17.2071 10.7133 17.6338 11.18C18.0738 11.6333 18.5804 12 19.1538 12.28C19.7404 12.5467 20.3671 12.68 21.0338 12.68C21.7004 12.68 22.3204 12.5467 22.8938 12.28C23.4804 12 23.9871 11.6333 24.4138 11.18C24.8538 10.7133 25.2004 10.18 25.4538 9.58C25.7071 8.98 25.8338 8.34667 25.8338 7.68C25.8338 7.02667 25.7071 6.4 25.4538 5.8C25.2004 5.18667 24.8538 4.65333 24.4138 4.2C23.9871 3.74667 23.4804 3.38667 22.8938 3.12C22.3204 2.84 21.7004 2.7 21.0338 2.7ZM39.6678 0.76C40.2945 1.04 40.8411 1.41333 41.3078 1.88C41.5478 2.10667 41.7545 2.36 41.9278 2.64C42.1145 2.92 42.2811 3.21333 42.4278 3.52C42.6945 4.17333 42.8278 4.85333 42.8278 5.56C42.8278 6.28 42.7078 6.94667 42.4678 7.56C42.2278 8.17333 41.8745 8.70667 41.4078 9.16C40.9545 9.61333 40.3678 9.97333 39.6478 10.24C38.9145 10.5067 38.0878 10.64 37.1678 10.64H34.5278C34.3545 10.64 34.2078 10.7 34.0878 10.82C33.9678 10.94 33.9078 11.0867 33.9078 11.26V14.38C33.9078 14.5533 33.8478 14.7 33.7278 14.82C33.6211 14.94 33.4811 15 33.3078 15H31.7278C31.5545 15 31.4078 14.94 31.2878 14.82C31.1678 14.7 31.1078 14.5533 31.1078 14.38V0.979999C31.1078 0.806666 31.1678 0.659999 31.2878 0.539999C31.4078 0.419999 31.5545 0.359999 31.7278 0.359999H37.6278C38.3345 0.359999 39.0145 0.493333 39.6678 0.76ZM38.7078 7.9C39.0145 7.76667 39.2678 7.58 39.4678 7.34C39.5611 7.22 39.6411 7.09333 39.7078 6.96C39.7878 6.81333 39.8478 6.66667 39.8878 6.52C39.9811 6.24 40.0278 5.92 40.0278 5.56C40.0278 5.24 39.9678 4.90667 39.8478 4.56C39.7278 4.22667 39.5545 3.94 39.3278 3.7C39.1145 3.44667 38.8345 3.24 38.4878 3.08C38.1678 2.92 37.7811 2.84 37.3278 2.84H34.5278C34.3545 2.84 34.2078 2.9 34.0878 3.02C33.9678 3.14 33.9078 3.28667 33.9078 3.46V7.5C33.9078 7.67333 33.9678 7.82 34.0878 7.94C34.2078 8.06 34.3545 8.12 34.5278 8.12H37.6278C38.0278 8.12 38.3878 8.04667 38.7078 7.9ZM53.2225 0.76C53.8492 1.04 54.3958 1.41333 54.8625 1.88C55.1025 2.10667 55.3092 2.36 55.4825 2.64C55.6692 2.92 55.8358 3.21333 55.9825 3.52C56.2492 4.17333 56.3825 4.85333 56.3825 5.56C56.3825 6.28 56.2625 6.94667 56.0225 7.56C55.7825 8.17333 55.4292 8.70667 54.9625 9.16C54.5092 9.61333 53.9225 9.97333 53.2025 10.24C52.4692 10.5067 51.6425 10.64 50.7225 10.64H48.0825C47.9092 10.64 47.7625 10.7 47.6425 10.82C47.5225 10.94 47.4625 11.0867 47.4625 11.26V14.38C47.4625 14.5533 47.4025 14.7 47.2825 14.82C47.1758 14.94 47.0358 15 46.8625 15H45.2825C45.1092 15 44.9625 14.94 44.8425 14.82C44.7225 14.7 44.6625 14.5533 44.6625 14.38V0.979999C44.6625 0.806666 44.7225 0.659999 44.8425 0.539999C44.9625 0.419999 45.1092 0.359999 45.2825 0.359999H51.1825C51.8892 0.359999 52.5692 0.493333 53.2225 0.76ZM52.2625 7.9C52.5692 7.76667 52.8225 7.58 53.0225 7.34C53.1158 7.22 53.1958 7.09333 53.2625 6.96C53.3425 6.81333 53.4025 6.66667 53.4425 6.52C53.5358 6.24 53.5825 5.92 53.5825 5.56C53.5825 5.24 53.5225 4.90667 53.4025 4.56C53.2825 4.22667 53.1092 3.94 52.8825 3.7C52.6692 3.44667 52.3892 3.24 52.0425 3.08C51.7225 2.92 51.3358 2.84 50.8825 2.84H48.0825C47.9092 2.84 47.7625 2.9 47.6425 3.02C47.5225 3.14 47.4625 3.28667 47.4625 3.46V7.5C47.4625 7.67333 47.5225 7.82 47.6425 7.94C47.7625 8.06 47.9092 8.12 48.0825 8.12H51.1825C51.5825 8.12 51.9425 8.04667 52.2625 7.9ZM65.0572 15.28C64.0172 15.28 63.0372 15.08 62.1172 14.68C61.1972 14.28 60.3905 13.74 59.6972 13.06C59.0172 12.3667 58.4772 11.56 58.0772 10.64C57.6772 9.72 57.4772 8.73333 57.4772 7.68C57.4772 6.64 57.6772 5.66 58.0772 4.74C58.4772 3.80667 59.0172 3 59.6972 2.32C60.3905 1.62667 61.1972 1.08 62.1172 0.68C63.0372 0.279999 64.0172 0.079999 65.0572 0.079999C66.1105 0.079999 67.0972 0.279999 68.0172 0.68C68.9372 1.08 69.7372 1.62667 70.4172 2.32C71.1105 3 71.6572 3.80667 72.0572 4.74C72.4572 5.66 72.6572 6.64 72.6572 7.68C72.6572 8.73333 72.4572 9.72 72.0572 10.64C71.6572 11.56 71.1105 12.3667 70.4172 13.06C69.7372 13.74 68.9372 14.28 68.0172 14.68C67.0972 15.08 66.1105 15.28 65.0572 15.28ZM65.0572 2.7C64.3905 2.7 63.7639 2.84 63.1772 3.12C62.6039 3.38667 62.0972 3.74667 61.6572 4.2C61.2305 4.65333 60.8905 5.18667 60.6372 5.8C60.3839 6.4 60.2572 7.02667 60.2572 7.68C60.2572 8.34667 60.3839 8.98 60.6372 9.58C60.8905 10.18 61.2305 10.7133 61.6572 11.18C62.0972 11.6333 62.6039 12 63.1772 12.28C63.7639 12.5467 64.3905 12.68 65.0572 12.68C65.7239 12.68 66.3439 12.5467 66.9172 12.28C67.5039 12 68.0105 11.6333 68.4372 11.18C68.8772 10.7133 69.2239 10.18 69.4772 9.58C69.7305 8.98 69.8572 8.34667 69.8572 7.68C69.8572 7.02667 69.7305 6.4 69.4772 5.8C69.2239 5.18667 68.8772 4.65333 68.4372 4.2C68.0105 3.74667 67.5039 3.38667 66.9172 3.12C66.3439 2.84 65.7239 2.7 65.0572 2.7Z" fill="#397153"/>
</svg>
