<svg width="76" height="76" viewBox="0 0 76 76" fill="none" xmlns="http://www.w3.org/2000/svg">
<rect width="76" height="76" rx="16" fill="#E8EBED"/>
<path d="M38 16C43.8348 16 49.4305 18.3179 53.5563 22.4437C57.6821 26.5695 60 32.1652 60 38C60 43.8348 57.6821 49.4305 53.5563 53.5563C49.4305 57.6821 43.8348 60 38 60C32.1652 60 26.5695 57.6821 22.4437 53.5563C18.3179 49.4305 16 43.8348 16 38C16 32.1652 18.3179 26.5695 22.4437 22.4437C26.5695 18.3179 32.1652 16 38 16ZM39.166 25.4034C36.6077 25.4034 34.6026 26.1294 33.116 27.5814C31.5949 29.0334 30.8689 31.0386 30.8689 33.5969H34.81C34.81 32.1449 35.0866 31.004 35.6743 30.2089C36.3311 29.2409 37.4029 28.7914 38.924 28.7914C40.0994 28.7914 41.0329 29.1026 41.6897 29.7594C42.312 30.4163 42.6577 31.3151 42.6577 32.456C42.6577 33.3203 42.3466 34.15 41.7243 34.9106L41.3094 35.3946C39.0623 37.3997 37.714 38.8517 37.2646 39.7851C36.7806 40.7186 36.5731 41.8594 36.5731 43.1731V43.6571H40.5489V43.1731C40.5489 42.3434 40.7217 41.6174 41.0674 40.926C41.3786 40.3037 41.828 39.716 42.4503 39.1974C44.1097 37.7454 45.1123 36.812 45.4234 36.4663C46.2531 35.36 46.7026 33.9426 46.7026 32.214C46.7026 30.1051 46.0111 28.4457 44.6283 27.2357C43.2454 25.9911 41.4131 25.4034 39.166 25.4034ZM38.5437 45.3511C37.8388 45.3321 37.1551 45.5931 36.6423 46.0771C36.3891 46.3156 36.1902 46.6057 36.0589 46.9278C35.9277 47.2499 35.8673 47.5965 35.8817 47.944C35.8817 48.7046 36.1237 49.3269 36.6423 49.8109C37.1512 50.3048 37.8345 50.5781 38.5437 50.5714C39.3043 50.5714 39.9266 50.3294 40.4451 49.8454C40.7037 49.602 40.9081 49.3069 41.0451 48.9794C41.1821 48.6518 41.2486 48.299 41.2403 47.944C41.2469 47.5975 41.1829 47.2533 41.0521 46.9323C40.9214 46.6113 40.7266 46.3204 40.4797 46.0771C39.9536 45.5922 39.259 45.3318 38.5437 45.3511Z" fill="#C8CCD0"/>
</svg>
