<svg width="76" height="76" viewBox="0 0 76 76" fill="none" xmlns="http://www.w3.org/2000/svg">
<rect width="76" height="76" rx="16" fill="#E8EBED"/>
<path d="M39.7435 24.1161C46.1035 24.9161 51.0835 29.8961 51.8835 36.2561C52.0035 37.2761 52.8635 38.0161 53.8635 38.0161C53.9435 38.0161 54.0235 38.0161 54.1035 37.9961C55.2035 37.8561 55.9835 36.8561 55.8435 35.7561C55.352 31.7846 53.5483 28.0909 50.7185 25.2611C47.8888 22.4313 44.1951 20.6276 40.2235 20.1361C39.1235 20.0161 38.1235 20.7961 38.0035 21.8961C37.8635 22.9961 38.6435 23.9961 39.7435 24.1161ZM40.5035 28.3361C39.4435 28.0561 38.3435 28.6961 38.0635 29.7761C37.7835 30.8561 38.4235 31.9361 39.5035 32.2161C40.5383 32.4848 41.4826 33.025 42.2386 33.781C42.9946 34.537 43.5349 35.4813 43.8035 36.5161C43.9367 37.0303 44.2684 37.4706 44.7258 37.7406C45.1832 38.0105 45.729 38.088 46.2435 37.9561C47.3035 37.6761 47.9435 36.5761 47.6835 35.5161C47.2333 33.789 46.3306 32.2132 45.0685 30.9511C43.8064 29.689 42.2306 28.7863 40.5035 28.3361ZM52.4435 44.5361L47.3635 43.9561C46.7662 43.886 46.1607 43.9521 45.5926 44.1496C45.0245 44.347 44.5085 44.6706 44.0835 45.0961L40.4035 48.7761C34.7259 45.8886 30.111 41.2738 27.2235 35.5961L30.9235 31.8961C31.7835 31.0361 32.2035 29.8361 32.0635 28.6161L31.4835 23.5761C31.3701 22.6005 30.9019 21.7006 30.168 21.0478C29.434 20.3951 28.4857 20.035 27.5035 20.0361H24.0435C21.7835 20.0361 19.9035 21.9161 20.0435 24.1761C21.1035 41.2561 34.7635 54.8961 51.8235 55.9561C54.0835 56.0961 55.9635 54.2161 55.9635 51.9561V48.4961C55.9835 46.4761 54.4635 44.7761 52.4435 44.5361Z" fill="#C8CCD0"/>
</svg>
