<svg width="76" height="76" viewBox="0 0 76 76" fill="none" xmlns="http://www.w3.org/2000/svg">
<rect width="76" height="76" rx="16" fill="#E8EBED"/>
<path d="M34.1562 17.5C33.8164 17.5 33.4905 17.635 33.2503 17.8753C33.01 18.1156 32.875 18.4414 32.875 18.7812C32.875 19.1211 33.01 19.4469 33.2503 19.6872C33.4905 19.9275 33.8164 20.0625 34.1562 20.0625H36.7187V55.9375H34.1562C33.8164 55.9375 33.4905 56.0725 33.2503 56.3128C33.01 56.553 32.875 56.8789 32.875 57.2187C32.875 57.5586 33.01 57.8844 33.2503 58.1247C33.4905 58.365 33.8164 58.5 34.1562 58.5H41.8437C42.1836 58.5 42.5094 58.365 42.7497 58.1247C42.99 57.8844 43.125 57.5586 43.125 57.2187C43.125 56.8789 42.99 56.553 42.7497 56.3128C42.5094 56.0725 42.1836 55.9375 41.8437 55.9375H39.2812V20.0625H41.8437C42.1836 20.0625 42.5094 19.9275 42.7497 19.6872C42.99 19.4469 43.125 19.1211 43.125 18.7812C43.125 18.4414 42.99 18.1156 42.7497 17.8753C42.5094 17.635 42.1836 17.5 41.8437 17.5H34.1562ZM23.9062 22.625H34.1562V53.375H23.9062C22.2072 53.375 20.5778 52.7001 19.3763 51.4987C18.1749 50.2972 17.5 48.6678 17.5 46.9687V29.0312C17.5 27.3322 18.1749 25.7028 19.3763 24.5013C20.5778 23.2999 22.2072 22.625 23.9062 22.625ZM52.0937 53.375H41.8437V22.625H52.0937C53.7928 22.625 55.4222 23.2999 56.6236 24.5013C57.8251 25.7028 58.5 27.3322 58.5 29.0312V46.9687C58.5 48.6678 57.8251 50.2972 56.6236 51.4987C55.4222 52.7001 53.7928 53.375 52.0937 53.375Z" fill="#C8CCD0"/>
</svg>
