<svg width="76" height="76" viewBox="0 0 76 76" fill="none" xmlns="http://www.w3.org/2000/svg">
<rect width="76" height="76" rx="16" fill="#E8EBED"/>
<path d="M38 49C39.0609 49 40.0783 48.5786 40.8284 47.8284C41.5786 47.0783 42 46.0609 42 45C42 43.9391 41.5786 42.9217 40.8284 42.1716C40.0783 41.4214 39.0609 41 38 41C36.9391 41 35.9217 41.4214 35.1716 42.1716C34.4214 42.9217 34 43.9391 34 45C34 46.0609 34.4214 47.0783 35.1716 47.8284C35.9217 48.5786 36.9391 49 38 49ZM50 31C51.0609 31 52.0783 31.4214 52.8284 32.1716C53.5786 32.9217 54 33.9391 54 35V55C54 56.0609 53.5786 57.0783 52.8284 57.8284C52.0783 58.5786 51.0609 59 50 59H26C24.9391 59 23.9217 58.5786 23.1716 57.8284C22.4214 57.0783 22 56.0609 22 55V35C22 33.9391 22.4214 32.9217 23.1716 32.1716C23.9217 31.4214 24.9391 31 26 31H28V27C28 24.3478 29.0536 21.8043 30.9289 19.9289C32.8043 18.0536 35.3478 17 38 17C39.3132 17 40.6136 17.2587 41.8268 17.7612C43.0401 18.2638 44.1425 19.0003 45.0711 19.9289C45.9997 20.8575 46.7362 21.9599 47.2388 23.1732C47.7413 24.3864 48 25.6868 48 27V31H50ZM38 21C36.4087 21 34.8826 21.6321 33.7574 22.7574C32.6321 23.8826 32 25.4087 32 27V31H44V27C44 25.4087 43.3679 23.8826 42.2426 22.7574C41.1174 21.6321 39.5913 21 38 21Z" fill="#C8CCD0"/>
</svg>
