<svg width="76" height="76" viewBox="0 0 76 76" fill="none" xmlns="http://www.w3.org/2000/svg">
<rect width="76" height="76" rx="16" fill="#E8EBED"/>
<path fill-rule="evenodd" clip-rule="evenodd" d="M18 17.9985C17.4696 17.9985 16.9609 18.2092 16.5858 18.5843C16.2107 18.9594 16 19.4681 16 19.9985V47.9985C16 50.7065 17.794 52.9945 20.258 53.7425C20.6248 54.9525 21.3645 56.0157 22.3715 56.7804C23.3784 57.545 24.6012 57.972 25.8653 58.0004C27.1293 58.0288 28.37 57.6571 29.4103 56.9384C30.4506 56.2198 31.2372 55.1908 31.658 53.9985H44.34C44.7608 55.1908 45.5474 56.2198 46.5877 56.9384C47.628 57.6571 48.8687 58.0288 50.1327 58.0004C51.3968 57.972 52.6196 57.545 53.6265 56.7804C54.6335 56.0157 55.3732 54.9525 55.74 53.7425C56.9723 53.3688 58.0518 52.6086 58.8189 51.5743C59.586 50.5399 60.0001 49.2863 60 47.9985V39.9985C60 38.6853 59.7413 37.385 59.2388 36.1717C58.7362 34.9584 57.9997 33.8561 57.0711 32.9275C56.1425 31.9989 55.0401 31.2623 53.8268 30.7597C52.6136 30.2572 51.3132 29.9985 50 29.9985H42V19.9985C42 19.4681 41.7893 18.9594 41.4142 18.5843C41.0391 18.2092 40.5304 17.9985 40 17.9985H18ZM44.342 49.9985H42V33.9985H50C51.5913 33.9985 53.1174 34.6307 54.2426 35.7559C55.3679 36.8811 56 38.4072 56 39.9985V47.9985C56.0003 48.2612 55.9486 48.5213 55.8481 48.764C55.7475 49.0067 55.6 49.2271 55.414 49.4125C54.9027 48.3414 54.0852 47.446 53.0649 46.8396C52.0446 46.2332 50.8674 45.9429 49.6822 46.0057C48.4969 46.0684 47.3569 46.4813 46.4064 47.192C45.4558 47.9027 44.7374 48.8794 44.342 49.9985ZM24.586 50.5845C24.7705 50.3935 24.9912 50.2412 25.2352 50.1363C25.4792 50.0315 25.7416 49.9763 26.0072 49.974C26.2728 49.9717 26.5361 50.0223 26.7819 50.1229C27.0277 50.2235 27.251 50.372 27.4388 50.5597C27.6266 50.7475 27.7751 50.9708 27.8756 51.2166C27.9762 51.4624 28.0268 51.7258 28.0245 51.9913C28.0222 52.2569 27.967 52.5193 27.8622 52.7633C27.7574 53.0074 27.605 53.228 27.414 53.4125C27.0368 53.7769 26.5316 53.9784 26.0072 53.9739C25.4828 53.9693 24.9812 53.759 24.6104 53.3882C24.2395 53.0174 24.0292 52.5157 24.0247 51.9913C24.0201 51.4669 24.2217 50.9617 24.586 50.5845ZM48 51.9985C48 51.4681 48.2107 50.9594 48.5858 50.5843C48.9609 50.2092 49.4696 49.9985 50 49.9985C50.5304 49.9985 51.0391 50.2092 51.4142 50.5843C51.7893 50.9594 52 51.4681 52 51.9985C52 52.529 51.7893 53.0377 51.4142 53.4128C51.0391 53.7878 50.5304 53.9985 50 53.9985C49.4696 53.9985 48.9609 53.7878 48.5858 53.4128C48.2107 53.0377 48 52.529 48 51.9985Z" fill="#C8CCD0"/>
</svg>
