<svg width="76" height="76" viewBox="0 0 76 76" fill="none" xmlns="http://www.w3.org/2000/svg">
<rect width="76" height="76" rx="16" fill="#E8EBED"/>
<path d="M22.4 26C22.1791 26 22 25.8209 22 25.6V22.4C22 22.1791 22.1791 22 22.4 22H53.6C53.8209 22 54 22.1791 54 22.4V25.6C54 25.8209 53.8209 26 53.6 26H22.4ZM22.4 54C22.1791 54 22 53.8209 22 53.6V42.4C22 42.1791 21.8209 42 21.6 42H20.4C20.1791 42 20 41.8209 20 41.6V38.0396C20 38.0133 20.0026 37.987 20.0078 37.9612L21.9357 28.3216C21.9731 28.1346 22.1372 28 22.3279 28H53.6721C53.8628 28 54.0269 28.1346 54.0643 28.3216L55.9922 37.9612C55.9974 37.987 56 38.0133 56 38.0396V41.6C56 41.8209 55.8209 42 55.6 42H54.4C54.1791 42 54 42.1791 54 42.4V53.6C54 53.8209 53.8209 54 53.6 54H50.4C50.1791 54 50 53.8209 50 53.6V42.4C50 42.1791 49.8209 42 49.6 42H42.4C42.1791 42 42 42.1791 42 42.4V53.6C42 53.8209 41.8209 54 41.6 54H22.4ZM26 49.6C26 49.8209 26.1791 50 26.4 50H37.6C37.8209 50 38 49.8209 38 49.6V42.4C38 42.1791 37.8209 42 37.6 42H26.4C26.1791 42 26 42.1791 26 42.4V49.6Z" fill="#C8CCD0"/>
</svg>
