<svg width="16" height="16" viewBox="0 0 16 16" fill="none" xmlns="http://www.w3.org/2000/svg">
<g id="fluent:settings-16-filled">
<path id="Vector" d="M2.26696 6.1529C2.52944 5.34735 2.95993 4.60669 3.52996 3.9799C3.57716 3.92815 3.63862 3.89151 3.70659 3.87461C3.77456 3.8577 3.84602 3.86128 3.91196 3.8849L5.27196 4.3689C5.36857 4.40315 5.47144 4.41607 5.57352 4.40679C5.6756 4.3975 5.77445 4.36622 5.86329 4.3151C5.95213 4.26398 6.02885 4.19424 6.08817 4.11065C6.1475 4.02707 6.18802 3.93163 6.20696 3.8309L6.46696 2.4149C6.47964 2.34608 6.51244 2.28256 6.56121 2.23236C6.60998 2.18217 6.67253 2.14756 6.74096 2.1329C7.57172 1.95668 8.43021 1.95668 9.26096 2.1329C9.40096 2.1629 9.50896 2.2739 9.53496 2.4149L9.79496 3.8309C9.81359 3.9318 9.85392 4.02744 9.91317 4.11121C9.97242 4.19498 10.0492 4.26487 10.1381 4.31604C10.227 4.36721 10.326 4.39844 10.4282 4.40757C10.5304 4.4167 10.6334 4.4035 10.73 4.3689L12.09 3.8849C12.1559 3.86128 12.2274 3.8577 12.2953 3.87461C12.3633 3.89151 12.4248 3.92815 12.472 3.9799C13.0415 4.60686 13.4717 5.34749 13.734 6.1529C13.7556 6.2195 13.7569 6.29105 13.7376 6.35838C13.7184 6.42572 13.6795 6.48579 13.626 6.5309L12.524 7.4619C12.4455 7.52789 12.3824 7.61024 12.3392 7.70317C12.2959 7.79611 12.2735 7.89739 12.2735 7.9999C12.2735 8.10242 12.2959 8.20369 12.3392 8.29663C12.3824 8.38957 12.4455 8.47191 12.524 8.5379L13.626 9.4689C13.736 9.5619 13.778 9.7109 13.734 9.8469C13.4718 10.6524 13.0417 11.393 12.472 12.0199C12.4248 12.0717 12.3633 12.1083 12.2953 12.1252C12.2274 12.1421 12.1559 12.1385 12.09 12.1149L10.73 11.6309C10.6334 11.5967 10.5305 11.5837 10.4284 11.593C10.3263 11.6023 10.2275 11.6336 10.1386 11.6847C10.0498 11.7358 9.97308 11.8056 9.91375 11.8891C9.85443 11.9727 9.8139 12.0682 9.79496 12.1689L9.53496 13.5849C9.52234 13.6539 9.48943 13.7176 9.44045 13.7678C9.39147 13.8181 9.32864 13.8525 9.25996 13.8669C8.42954 14.0431 7.57139 14.0431 6.74096 13.8669C6.67235 13.8524 6.60958 13.8179 6.56062 13.7677C6.51166 13.7175 6.47871 13.6539 6.46596 13.5849L6.20696 12.1689C6.18834 12.068 6.148 11.9724 6.08876 11.8886C6.02951 11.8048 5.95276 11.7349 5.86383 11.6838C5.7749 11.6326 5.67591 11.6014 5.57371 11.5922C5.47151 11.5831 5.36855 11.5963 5.27196 11.6309L3.91196 12.1149C3.84602 12.1385 3.77456 12.1421 3.70659 12.1252C3.63862 12.1083 3.57716 12.0717 3.52996 12.0199C2.96029 11.393 2.53014 10.6524 2.26796 9.8469C2.24632 9.7803 2.24504 9.70876 2.26428 9.64142C2.28351 9.57409 2.3224 9.51402 2.37596 9.4689L3.47796 8.5379C3.55626 8.47182 3.6192 8.38944 3.66237 8.29651C3.70554 8.20359 3.7279 8.10236 3.7279 7.9999C3.7279 7.89744 3.70554 7.79621 3.66237 7.70329C3.6192 7.61037 3.55626 7.52799 3.47796 7.4619L2.37596 6.5309C2.3224 6.48579 2.28351 6.42572 2.26428 6.35838C2.24504 6.29105 2.24532 6.2195 2.26696 6.1529ZM6.24996 7.9999C6.24996 8.46403 6.43434 8.90915 6.76253 9.23734C7.09071 9.56553 7.53583 9.7499 7.99996 9.7499C8.46409 9.7499 8.90921 9.56553 9.2374 9.23734C9.56559 8.90915 9.74996 8.46403 9.74996 7.9999C9.74996 7.53577 9.56559 7.09065 9.2374 6.76247C8.90921 6.43428 8.46409 6.2499 7.99996 6.2499C7.53583 6.2499 7.09071 6.43428 6.76253 6.76247C6.43434 7.09065 6.24996 7.53577 6.24996 7.9999Z" fill="#9EA4AA"/>
</g>
</svg>
