<svg width="32" height="32" viewBox="0 0 32 32" fill="none" xmlns="http://www.w3.org/2000/svg">
<g id="solar:share-bold-duotone">
<path id="Vector" fill-rule="evenodd" clip-rule="evenodd" d="M16.7071 8.11074C16.7071 5.84139 18.5571 4.00001 20.8363 4.00001C21.3775 3.99871 21.9136 4.10401 22.414 4.30989C22.9144 4.51578 23.3694 4.81821 23.7529 5.19993C24.1365 5.58164 24.4411 6.03517 24.6494 6.53461C24.8577 7.03404 24.9655 7.56962 24.9668 8.11074C24.9668 10.3813 23.1168 12.2227 20.8363 12.2227C20.2895 12.2234 19.7479 12.1153 19.2431 11.9049C18.7384 11.6944 18.2805 11.3857 17.8961 10.9968L12.1795 14.8892C12.3387 15.6822 12.2607 16.5046 11.9551 17.2535L18.2229 21.3729C18.9611 20.7708 19.885 20.4427 20.8376 20.4442C21.3787 20.443 21.9148 20.5485 22.4151 20.7545C22.9155 20.9605 23.3704 21.2631 23.7538 21.6449C24.1373 22.0268 24.4417 22.4804 24.6498 22.9799C24.858 23.4794 24.9657 24.015 24.9668 24.5561C24.9668 26.8255 23.1168 28.6669 20.8363 28.6669C19.7437 28.6691 18.6949 28.2374 17.9206 27.4665C17.1462 26.6956 16.7097 25.6488 16.7071 24.5561C16.7062 23.9797 16.8277 23.4097 17.0636 22.8837L10.845 18.8001C10.092 19.4549 9.12715 19.8146 8.12923 19.8127C7.58806 19.814 7.05194 19.7086 6.5515 19.5027C6.05105 19.2967 5.5961 18.9941 5.21264 18.6123C4.82917 18.2304 4.5247 17.7767 4.31663 17.2771C4.10856 16.7776 4.00097 16.2419 4 15.7007C4.00113 15.1597 4.10885 14.6241 4.31699 14.1247C4.52513 13.6253 4.82962 13.1717 5.21307 12.79C5.59652 12.4083 6.05142 12.1058 6.55178 11.8999C7.05214 11.694 7.58816 11.5887 8.12923 11.59C9.4415 11.59 10.6082 12.198 11.3643 13.1452L16.9057 9.37245C16.7739 8.96487 16.7068 8.53911 16.7071 8.11074Z" fill="#C9CDD2"/>
</g>
</svg>
