<svg width="154" height="105" viewBox="0 0 154 105" fill="none" xmlns="http://www.w3.org/2000/svg">
<path d="M7.43108 8.65157C8.81561 3.47902 13.5383 0 18.893 0H134.63C140.027 0 144.776 3.53236 146.127 8.75705C148.959 19.7127 153.287 38.7074 153.287 52.5C153.287 66.2926 148.959 85.2873 146.127 96.2429C144.776 101.468 140.027 105 134.63 105H18.893C13.5383 105 8.81562 101.521 7.43109 96.3484C4.50308 85.4095 0 66.3369 0 52.5C0 38.6631 4.50308 19.5905 7.43108 8.65157Z" fill="#3E635A"/>
<path d="M49.8162 29.5774V36.1041" stroke="#E8EBED" stroke-width="5.57157" stroke-linecap="round"/>
<path d="M103.795 29.5774V36.1041" stroke="#E8EBED" stroke-width="5.57157" stroke-linecap="round"/>
<path d="M63.471 36.2324C63.471 36.2324 70.9069 40.3511 76.3266 40.3511C81.7463 40.3511 89.1822 36.2324 89.1822 36.2324" stroke="#E8EBED" stroke-width="3.48223" stroke-linecap="round"/>
</svg>
